<?xml version="1.0" encoding="UTF-8" standalone="no"?>
<!DOCTYPE svg PUBLIC "-//W3C//DTD SVG 1.1//EN" "http://www.w3.org/Graphics/SVG/1.1/DTD/svg11.dtd">
<svg width="100%" height="100%" viewBox="0 0 118 118" version="1.1" xmlns="http://www.w3.org/2000/svg" xmlns:xlink="http://www.w3.org/1999/xlink" xml:space="preserve" xmlns:serif="http://www.serif.com/" style="fill-rule:evenodd;clip-rule:evenodd;stroke-linejoin:round;stroke-miterlimit:2;">
    <g id="Artboard2" transform="matrix(0.59,0,0,0.558005,-2996.35,0)">
        <rect x="5078.56" y="0" width="200" height="211.468" style="fill:none;"/>
        <g transform="matrix(1.47029,0,0,2.42165,1433.43,-2060.2)">
            <g transform="matrix(0,-1.00631,-1.56757,0,2547.21,851.851)">
                <path d="M-42.285,-42.285C-65.639,-42.285 -84.57,-23.354 -84.57,0C-84.57,23.354 -65.639,42.285 -42.285,42.285C-18.931,42.285 0,23.354 0,0C0,-23.354 -18.931,-42.285 -42.285,-42.285" style="fill:rgb(120,190,32);fill-rule:nonzero;"/>
            </g>
            <g id="Upload-Icon" serif:id="Upload Icon" transform="matrix(2.88195,0,0,1.85008,-527.831,-4763.15)">
                <path d="M1073.5,3067C1073.5,3067 1073.5,3067 1073.5,3067L1073.5,3067L1067.98,3067C1067.98,3067 1067.98,3067 1067.98,3067L1067.98,3061.45L1069.21,3062.68C1069.62,3063.09 1070.27,3063.09 1070.68,3062.68C1071.09,3062.27 1071.09,3061.61 1070.68,3061.2L1067.78,3058.29C1067.56,3058.07 1067.28,3057.98 1066.99,3057.99C1066.7,3057.97 1066.41,3058.07 1066.19,3058.29L1063.29,3061.2C1062.88,3061.61 1062.88,3062.27 1063.29,3062.68C1063.69,3063.09 1064.35,3063.09 1064.76,3062.68L1065.99,3061.45L1065.99,3067L1061.5,3067L1061.5,3067C1057.91,3067 1055,3064.09 1055,3060.5C1055,3057.24 1057.41,3054.56 1060.55,3054.1C1061.71,3051.12 1064.61,3049 1068,3049C1072.29,3049 1075.78,3052.38 1075.98,3056.62C1077.77,3057.53 1079,3059.36 1079,3061.5C1079,3064.54 1076.54,3067 1073.5,3067Z" style="fill:white;"/>
            </g>
        </g>
    </g>
</svg>
