<?xml version="1.0" encoding="UTF-8" standalone="no"?>
<!DOCTYPE svg PUBLIC "-//W3C//DTD SVG 1.1//EN" "http://www.w3.org/Graphics/SVG/1.1/DTD/svg11.dtd">
<svg width="100%" height="100%" viewBox="0 0 118 118" version="1.1" xmlns="http://www.w3.org/2000/svg" xmlns:xlink="http://www.w3.org/1999/xlink" xml:space="preserve" xmlns:serif="http://www.serif.com/" style="fill-rule:evenodd;clip-rule:evenodd;stroke-linejoin:round;stroke-miterlimit:2;">
    <g id="Artboard3" transform="matrix(0.59,0,0,0.558005,-2996.35,0)">
        <rect x="5078.56" y="0" width="200" height="211.468" style="fill:none;"/>
        <g transform="matrix(1.47029,0,0,2.42165,789.072,-2060.2)">
            <g transform="matrix(0,-1.00631,-1.56757,0,2985.46,851.851)">
                <path d="M-42.285,-42.285C-65.639,-42.285 -84.57,-23.354 -84.57,0C-84.57,23.354 -65.639,42.285 -42.285,42.285C-18.931,42.285 0,23.354 0,0C0,-23.354 -18.931,-42.285 -42.285,-42.285" style="fill:rgb(120,190,32);fill-rule:nonzero;"/>
            </g>
            <g transform="matrix(0.888447,0,0,1.17012,334.409,124.476)">
                <g id="Checked-Icon" serif:id="Checked Icon" transform="matrix(2.48772,0,0,1.21257,894.778,-3305.76)">
                    <path d="M857.397,3270.44L845.492,3282.36L840.588,3277.44C839.995,3276.85 839.034,3276.85 838.442,3277.44C837.849,3278.04 837.849,3279 838.442,3279.59L844.388,3285.56C844.692,3285.86 845.093,3286.01 845.492,3286C845.891,3286.01 846.292,3285.86 846.597,3285.56L859.543,3272.59C860.135,3272 860.135,3271.04 859.543,3270.44C858.95,3269.85 857.989,3269.85 857.397,3270.44Z" style="fill:white;"/>
                </g>
                <g id="List-Icon" serif:id="List Icon" transform="matrix(2.13451,0,0,1.04041,2550.39,-3330.45)">
                    <path d="M205.5,3832L190.5,3832C189.672,3832 189,3831.33 189,3830.5C189,3829.67 189.672,3829 190.5,3829L205.5,3829C206.328,3829 207,3829.67 207,3830.5C207,3831.33 206.328,3832 205.5,3832ZM205.5,3826L190.5,3826C189.672,3826 189,3825.33 189,3824.5C189,3823.67 189.672,3823 190.5,3823L205.5,3823C206.328,3823 207,3823.67 207,3824.5C207,3825.33 206.328,3826 205.5,3826ZM205.5,3820L190.5,3820C189.672,3820 189,3819.33 189,3818.5C189,3817.67 189.672,3817 190.5,3817L205.5,3817C206.328,3817 207,3817.67 207,3818.5C207,3819.33 206.328,3820 205.5,3820ZM184.5,3838C183.672,3838 183,3837.33 183,3836.5C183,3835.67 183.672,3835 184.5,3835C185.328,3835 186,3835.67 186,3836.5C186,3837.33 185.328,3838 184.5,3838ZM184.5,3832C183.672,3832 183,3831.33 183,3830.5C183,3829.67 183.672,3829 184.5,3829C185.328,3829 186,3829.67 186,3830.5C186,3831.33 185.328,3832 184.5,3832ZM184.5,3826C183.672,3826 183,3825.33 183,3824.5C183,3823.67 183.672,3823 184.5,3823C185.328,3823 186,3823.67 186,3824.5C186,3825.33 185.328,3826 184.5,3826ZM184.5,3820C183.672,3820 183,3819.33 183,3818.5C183,3817.67 183.672,3817 184.5,3817C185.328,3817 186,3817.67 186,3818.5C186,3819.33 185.328,3820 184.5,3820ZM190.5,3835L205.5,3835C206.328,3835 207,3835.67 207,3836.5C207,3837.33 206.328,3838 205.5,3838L190.5,3838C189.672,3838 189,3837.33 189,3836.5C189,3835.67 189.672,3835 190.5,3835Z" style="fill:white;"/>
                </g>
            </g>
        </g>
    </g>
</svg>
