<?xml version="1.0" encoding="UTF-8" standalone="no"?>
<!DOCTYPE svg PUBLIC "-//W3C//DTD SVG 1.1//EN" "http://www.w3.org/Graphics/SVG/1.1/DTD/svg11.dtd">
<svg width="100%" height="100%" viewBox="0 0 120 168" version="1.1" xmlns="http://www.w3.org/2000/svg" xmlns:xlink="http://www.w3.org/1999/xlink" xml:space="preserve" xmlns:serif="http://www.serif.com/" style="fill-rule:evenodd;clip-rule:evenodd;stroke-linejoin:round;stroke-miterlimit:2;">
    <g id="Grafizam" transform="matrix(1.15165,0,0,0.996494,400.409,-522.699)">
        <rect x="-347.684" y="524.538" width="104.199" height="168.591" style="fill:none;"/>
        <clipPath id="_clip1">
            <rect x="-347.684" y="524.538" width="104.199" height="168.591"/>
        </clipPath>
        <g clip-path="url(#_clip1)">
            <g transform="matrix(0.104012,0,0,0.186857,-1375.55,447.596)">
                <rect x="9882.15" y="411.768" width="1001.79" height="902.246" style="fill:none;"/>
                <clipPath id="_clip2">
                    <rect x="9882.15" y="411.768" width="1001.79" height="902.246"/>
                </clipPath>
                <g clip-path="url(#_clip2)">
                    <g transform="matrix(-665.493,428.121,665.498,428.117,10413.2,510.485)">
                        <path d="M0.055,-0.261L1.468,-0.261L0.946,0.261L-0.468,0.261L0.055,-0.261Z" style="fill:url(#_Linear3);fill-rule:nonzero;"/>
                    </g>
                    <g transform="matrix(-628.871,404.566,628.883,404.558,10316.9,825.657)">
                        <path d="M0.053,-0.259L1.466,-0.259L0.948,0.259L-0.466,0.259L0.053,-0.259Z" style="fill:url(#_Linear4);fill-rule:nonzero;"/>
                    </g>
                </g>
            </g>
        </g>
    </g>
    <defs>
        <linearGradient id="_Linear3" x1="0" y1="0" x2="1" y2="0" gradientUnits="userSpaceOnUse" gradientTransform="matrix(0.707121,0.707115,0.707115,-0.707121,0.239012,-0.446125)"><stop offset="0" style="stop-color:rgb(28,189,209);stop-opacity:0"/><stop offset="0.55" style="stop-color:rgb(0,145,218);stop-opacity:0.4"/><stop offset="1" style="stop-color:rgb(28,189,209);stop-opacity:0"/></linearGradient>
        <linearGradient id="_Linear4" x1="0" y1="0" x2="1" y2="0" gradientUnits="userSpaceOnUse" gradientTransform="matrix(-0.707119,-0.707106,-0.707106,0.707119,0.948023,0.259095)"><stop offset="0" style="stop-color:rgb(127,53,178);stop-opacity:1"/><stop offset="0.25" style="stop-color:rgb(127,53,178);stop-opacity:1"/><stop offset="0.6" style="stop-color:rgb(41,133,202);stop-opacity:1"/><stop offset="0.64" style="stop-color:rgb(33,141,204);stop-opacity:1"/><stop offset="1" style="stop-color:rgb(33,141,204);stop-opacity:0.2"/></linearGradient>
    </defs>
</svg>
