<?xml version="1.0" encoding="UTF-8" standalone="no"?>
<!DOCTYPE svg PUBLIC "-//W3C//DTD SVG 1.1//EN" "http://www.w3.org/Graphics/SVG/1.1/DTD/svg11.dtd">
<svg width="100%" height="100%" viewBox="0 0 200 35" version="1.1" xmlns="http://www.w3.org/2000/svg" xmlns:xlink="http://www.w3.org/1999/xlink" xml:space="preserve" xmlns:serif="http://www.serif.com/" style="fill-rule:evenodd;clip-rule:evenodd;stroke-linejoin:round;stroke-miterlimit:2;">
    <g transform="matrix(1,0,0,1,-458.231,-125.383)">
        <g transform="matrix(0.86747,0,0,0.966343,-1489.45,6.95554e-12)">
            <g transform="matrix(0.522565,0,0,0.469098,2131.18,-1.13046)">
                <path d="M659.468,327.237L608.858,327.237L608.858,335.855L659.468,335.855L659.468,327.237ZM603.032,338.815L603.032,295.406C603.032,284.47 597.566,279.004 586.634,279.004L567.336,279.004C556.395,279.004 550.929,284.47 550.929,295.398L550.929,319.493C550.929,330.422 556.387,335.88 567.302,335.88L588.522,335.88L588.522,327.22L567.302,327.22C562.161,327.22 559.596,324.646 559.596,319.506L559.596,295.385C559.596,290.245 562.17,287.671 567.319,287.671L586.642,287.671C591.791,287.671 594.374,290.245 594.374,295.389L594.374,338.832C594.374,343.98 591.799,346.554 586.66,346.554L565.439,346.554L565.439,355.223L586.66,355.223C597.575,355.223 603.032,349.747 603.032,338.815M532.661,335.88L541.319,335.88L541.319,295.398C541.319,284.47 535.852,279.004 524.921,279.004L489.216,279.004L489.216,335.88L497.883,335.88L497.883,287.671L524.929,287.671C530.078,287.671 532.661,290.245 532.661,295.385L532.661,335.88ZM469.514,335.88L478.172,335.88L478.172,279.004L469.514,279.004L469.514,335.88ZM458.394,319.493L458.394,295.398C458.394,284.47 452.927,279.004 441.996,279.004L422.697,279.004C411.763,279.004 406.291,284.479 406.291,295.419L406.291,350.452L414.955,350.452L414.955,295.398C414.955,290.245 417.529,287.671 422.68,287.671L442.004,287.671C447.161,287.671 449.736,290.245 449.736,295.385L449.736,319.506C449.736,324.646 447.161,327.22 442.021,327.22L420.801,327.22L420.801,335.88L442.021,335.88C452.936,335.88 458.394,330.422 458.394,319.493M387.876,335.88L396.534,335.88L396.534,295.398C396.534,284.47 391.086,279.004 380.171,279.004L330.119,279.004L330.119,335.88L338.786,335.88L338.786,287.671L359.002,287.671L359.002,335.88L367.66,335.88L367.66,287.671L380.171,287.671C385.302,287.671 387.876,290.245 387.876,295.385L387.876,335.88ZM320.508,319.686L320.508,295.398C320.508,284.47 315.042,279.004 304.11,279.004L284.812,279.004C273.872,279.004 268.405,284.47 268.405,295.398L268.405,319.493C268.405,330.422 273.872,335.88 284.812,335.88L304.11,335.88C315.042,335.88 320.508,330.483 320.508,319.686M311.85,319.69C311.85,324.714 309.267,327.22 304.119,327.22L284.804,327.22C279.646,327.22 277.072,324.646 277.072,319.506L277.072,295.385C277.072,290.245 279.646,287.671 284.804,287.671L304.119,287.671C309.267,287.671 311.85,290.245 311.85,295.385L311.85,319.69ZM234.649,335.88L260.674,335.88L260.674,327.22L234.649,327.22C229.5,327.22 226.926,324.646 226.926,319.506L226.926,295.385C226.926,290.245 229.5,287.671 234.649,287.671L260.674,287.671L260.674,279.004L234.649,279.004C223.725,279.004 218.268,284.47 218.268,295.398L218.268,319.493C218.268,330.422 223.725,335.88 234.649,335.88" style="fill:rgb(183,14,11);fill-rule:nonzero;"/>
            </g>
        </g>
    </g>
</svg>
