<?xml version="1.0" encoding="UTF-8"?>
<svg width="196px" height="31px" viewBox="0 0 196 31" version="1.1" xmlns="http://www.w3.org/2000/svg" xmlns:xlink="http://www.w3.org/1999/xlink">
    <!-- Generator: Sketch 63.1 (92452) - https://sketch.com -->
    <title>Group</title>
    <desc>Created with Sketch.</desc>
    <g id="Page-1" stroke="none" stroke-width="1" fill="none" fill-rule="evenodd">
        <g id="VMware-Workspace-One---Landing-Page" transform="translate(-173.000000, -122.000000)" fill="#797477">
            <g id="Group" transform="translate(173.485010, 122.476461)">
                <path d="M83.6769899,28.093539 L75.1489899,3.82353898 C75.0379899,3.49353898 74.8759899,3.05353898 74.8759899,2.66353898 C74.8759899,1.60353898 75.7459899,0.613538982 76.9919899,0.613538982 C78.0789899,0.613538982 78.7879899,1.33353898 79.1139899,2.38353898 L86.1789899,23.293539 L93.2949899,2.32353898 C93.6189899,1.33353898 94.2739899,0.613538982 95.3549899,0.613538982 L95.5749899,0.613538982 C96.7189899,0.613538982 97.4249899,1.33353898 97.7489899,2.32353898 L104.80899,23.293539 L111.98699,2.27353898 C112.25999,1.38353898 112.85299,0.613538982 113.99699,0.613538982 C115.19099,0.613538982 116.06199,1.55353898 116.06199,2.60353898 C116.06199,2.99353898 115.89699,3.43353898 115.79099,3.77353898 L107.20699,28.093539 C106.76799,29.363539 105.90199,30.033539 104.92199,30.033539 L104.75999,30.033539 C103.67299,30.033539 102.85499,29.363539 102.47399,28.093539 L95.4709899,7.47353898 L88.4029899,28.093539 C88.0239899,29.363539 87.2069899,30.033539 86.1229899,30.033539 L86.0099899,30.033539 C84.9799899,30.033539 84.1119899,29.363539 83.6769899,28.093539" id="Fill-10"></path>
                <path d="M145.84399,2.72353898 C145.84399,1.55353898 146.76799,0.553538982 147.90899,0.553538982 C149.10999,0.553538982 150.03399,1.50353898 150.03399,2.72353898 L150.03399,7.65353898 C152.10099,2.86353898 156.68399,0.613538982 159.72099,0.613538982 C160.97799,0.613538982 161.79499,1.55353898 161.79499,2.77353898 C161.79499,3.94353898 161.03299,4.77353898 159.93899,4.94353898 C154.49499,5.61353898 150.03399,9.78353898 150.03399,18.073539 L150.03399,27.823539 C150.03399,28.993539 149.16399,29.993539 147.96699,29.993539 C146.76799,29.993539 145.84399,29.043539 145.84399,27.823539 L145.84399,2.72353898 Z" id="Fill-11"></path>
                <path d="M175.23899,30.263539 C167.66499,30.263539 161.47899,24.253539 161.47899,15.453539 L161.47899,15.343539 C161.47899,7.14353898 167.07899,0.533538982 174.70599,0.533538982 C182.86099,0.533538982 187.50599,7.41353898 187.50599,14.953539 C187.50599,16.113539 186.59099,16.943539 185.58299,16.943539 L165.64499,16.943539 C166.22699,23.103539 170.43599,26.573539 175.34799,26.573539 C178.75999,26.573539 181.26199,25.193539 183.29099,23.263539 C183.60899,22.993539 183.98399,22.773539 184.46599,22.773539 C185.47599,22.773539 186.27799,23.603539 186.27799,24.593539 C186.27799,25.083539 186.06699,25.583539 185.63599,25.963539 C183.02499,28.553539 179.92999,30.263539 175.23899,30.263539 L175.23899,30.263539 Z M183.39799,13.803539 C182.97199,8.62353898 180.08799,4.11353898 174.59699,4.11353898 C169.79699,4.11353898 166.16899,8.24353898 165.64499,13.803539 L183.39799,13.803539 Z" id="Fill-12"></path>
                <path d="M116.13699,21.353539 L116.13699,21.233539 C116.13699,15.193539 121.02199,11.973539 128.12599,11.973539 C131.70999,11.973539 134.25899,12.473539 136.76099,13.193539 L136.76099,12.193539 C136.76099,7.04353898 133.65899,4.38353898 128.40199,4.38353898 C125.57799,4.38353898 123.93499,4.74353898 121.86999,5.68353898 C121.60099,5.79353898 121.32799,5.85353898 121.11499,5.85353898 C120.13799,5.85353898 119.26799,5.02353898 119.26799,4.02353898 C119.26799,3.14353898 119.64499,2.59353898 120.40899,2.24353898 C123.17099,1.02353898 125.25599,0.613538982 128.83499,0.613538982 C132.79399,0.613538982 135.83299,1.66353898 137.89099,3.77353898 C139.79199,5.71353898 140.77099,8.48353898 140.77099,12.143539 L140.77099,27.963539 C140.77099,29.183539 139.90299,30.073539 138.75699,30.073539 C137.56899,30.073539 136.76099,29.183539 136.76099,28.073539 L136.76099,25.333539 C134.80499,27.943539 131.54599,30.273539 126.61699,30.273539 C121.40399,30.273539 116.13699,27.223539 116.13699,21.353539 M136.81199,19.133539 L136.81199,16.363539 C134.74699,15.743539 131.97699,15.133539 128.56199,15.133539 C123.30399,15.133539 120.36899,17.463539 120.36899,21.073539 L120.36899,21.183539 C120.36899,24.783539 123.62399,26.893539 127.42499,26.893539 C132.57599,26.893539 136.81199,23.673539 136.81199,19.133539" id="Fill-13"></path>
                <path d="M7.66098992,2.41353898 C6.74198992,0.353538982 4.47098992,-0.586461018 2.34998992,0.383538982 C0.227989918,1.34353898 -0.554010082,3.75353898 0.404989918,5.81353898 L9.30898992,25.583539 C10.7099899,28.683539 12.1859899,30.313539 14.9549899,30.313539 C17.9139899,30.313539 19.2039899,28.543539 20.6029899,25.583539 C20.6029899,25.583539 28.3699899,8.30353898 28.4479899,8.12353898 C28.5269899,7.94353898 28.7759899,7.38353898 29.5659899,7.39353898 C30.2349899,7.39353898 30.7969899,7.94353898 30.7969899,8.67353898 L30.7969899,25.573539 C30.7969899,28.173539 32.2109899,30.313539 34.9309899,30.313539 C37.6479899,30.313539 39.1179899,28.173539 39.1179899,25.573539 L39.1179899,11.743539 C39.1179899,9.07353898 40.9879899,7.34353898 43.5359899,7.34353898 C46.0849899,7.34353898 47.7819899,9.13353898 47.7819899,11.743539 L47.7819899,25.573539 C47.7819899,28.173539 49.1999899,30.313539 51.9159899,30.313539 C54.6329899,30.313539 56.1099899,28.173539 56.1099899,25.573539 L56.1099899,11.743539 C56.1099899,9.07353898 57.9729899,7.34353898 60.5239899,7.34353898 C63.0679899,7.34353898 64.7709899,9.13353898 64.7709899,11.743539 L64.7709899,25.573539 C64.7709899,28.173539 66.1879899,30.313539 68.9049899,30.313539 C71.6209899,30.313539 73.0949899,28.173539 73.0949899,25.573539 L73.0949899,9.83353898 C73.0949899,4.05353898 68.5449899,0.00353898213 63.0679899,0.00353898213 C57.5979899,0.00353898213 54.1719899,3.86353898 54.1719899,3.86353898 C52.3509899,1.45353898 49.8399899,0.00353898213 45.5929899,0.00353898213 C41.1099899,0.00353898213 37.1869899,3.86353898 37.1869899,3.86353898 C35.3629899,1.45353898 32.2619899,0.00353898213 29.6929899,0.00353898213 C25.7209899,0.00353898213 22.5659899,1.78353898 20.6409899,6.28353898 L14.9549899,19.983539 L7.66098992,2.41353898 Z" id="Fill-14"></path>
                <path d="M187.84299,4.12353898 L187.84299,4.10353898 C187.84299,2.16353898 189.37899,0.533538982 191.31099,0.533538982 C193.26999,0.533538982 194.78399,2.14353898 194.78399,4.08353898 L194.78399,4.10353898 C194.78399,6.04353898 193.25199,7.67353898 191.31099,7.67353898 C189.35299,7.67353898 187.84299,6.06353898 187.84299,4.12353898 M194.11699,4.10353898 L194.11699,4.09353898 C194.11699,2.50353898 192.91399,1.19353898 191.31099,1.19353898 C189.72099,1.19353898 188.49999,2.52353898 188.49999,4.10353898 L188.49999,4.11353898 C188.49999,5.70353898 189.70799,7.01353898 191.31099,7.01353898 C192.89599,7.01353898 194.11699,5.68353898 194.11699,4.10353898" id="Fill-15"></path>
                <path d="M189.98299,2.69353898 C189.98299,2.48353898 190.14799,2.31353898 190.35599,2.31353898 L191.51499,2.31353898 C191.95099,2.31353898 192.28799,2.44353898 192.49699,2.67353898 C192.68799,2.85353898 192.78999,3.13353898 192.78999,3.45353898 L192.78999,3.46353898 C192.78999,4.00353898 192.52299,4.33353898 192.11899,4.50353898 L192.62999,5.14353898 C192.70099,5.23353898 192.74999,5.31353898 192.74999,5.43353898 C192.74999,5.64353898 192.57699,5.78353898 192.39899,5.78353898 C192.23499,5.78353898 192.12399,5.69353898 192.03499,5.58353898 L191.31599,4.65353898 L190.72499,4.65353898 L190.72499,5.40353898 C190.72499,5.61353898 190.56499,5.78353898 190.35599,5.78353898 C190.14799,5.78353898 189.98299,5.61353898 189.98299,5.40353898 L189.98299,2.69353898 Z M191.47499,3.98353898 C191.83499,3.98353898 192.03499,3.79353898 192.03499,3.50353898 L192.03499,3.49353898 C192.03499,3.16353898 191.82199,2.99353898 191.46199,2.99353898 L190.72499,2.99353898 L190.72499,3.98353898 L191.47499,3.98353898 Z" id="Fill-16"></path>
            </g>
        </g>
    </g>
</svg>